# xmcd
#
# Track frame offsets: 
#        187
#        16677
#        35547
#        49580
#        61577
#        75287
#        92090
#        106835
#        121225
#        136122
#
# Disc length: 2005 seconds
#
# Revision: 2
# Processed by: cddbd v1.5.2PL0 Copyright (c) Steve Scherf et al.
# Submitted via: ExactAudioCopy v0.99pb5
#
DISCID=6507d30a
DTITLE=Johnny Cash - Johnny Cash Biggest Hits (COLUMBIA)
DYEAR=1987
DGENRE=Country
TTITLE0=The Baron
TTITLE1=The Ballad Of Ira Hayes
TTITLE2=It'll Be Her
TTITLE3=Flesh And Blood
TTITLE4=Mobile Bay
TTITLE5=A Boy Named Sue
TTITLE6=The L&N Don't Stop Here Anymore
TTITLE7=Bull Rider
TTITLE8=The Last Time
TTITLE9=The Reverend Mr. Black
EXTD=
EXTT0=
EXTT1=
EXTT2=
EXTT3=
EXTT4=
EXTT5=
EXTT6=
EXTT7=
EXTT8=
EXTT9=
PLAYORDER=
